{"glyphs":{"0":{"ha":1259,"x_min":0,"x_max":1042,"o":"m 694 174 l 694 521 l 521 521 l 521 347 l 347 347 l 347 174 l 694 174 m 521 694 l 521 868 l 694 868 l 694 1042 l 347 1042 l 347 694 l 521 694 m 174 0 l 174 174 l 0 174 l 0 1042 l 174 1042 l 174 1215 l 868 1215 l 868 1042 l 1042 1042 l 1042 174 l 868 174 l 868 0 l 174 0 z "},"1":{"ha":1259,"x_min":0,"x_max":1042,"o":"m 0 0 l 0 174 l 347 174 l 347 868 l 174 868 l 174 1042 l 347 1042 l 347 1215 l 694 1215 l 694 174 l 1042 174 l 1042 0 l 0 0 z "},"2":{"ha":1259,"x_min":0,"x_max":1042,"o":"m 0 0 l 0 347 l 174 347 l 174 521 l 347 521 l 347 694 l 694 694 l 694 1042 l 347 1042 l 347 868 l 0 868 l 0 1042 l 174 1042 l 174 1215 l 868 1215 l 868 1042 l 1042 1042 l 1042 694 l 868 694 l 868 521 l 521 521 l 521 347 l 347 347 l 347 174 l 1042 174 l 1042 0 l 0 0 z "},"3":{"ha":1259,"x_min":0,"x_max":1042,"o":"m 174 0 l 174 174 l 0 174 l 0 347 l 347 347 l 347 174 l 694 174 l 694 521 l 347 521 l 347 694 l 694 694 l 694 1042 l 347 1042 l 347 868 l 0 868 l 0 1042 l 174 1042 l 174 1215 l 868 1215 l 868 1042 l 1042 1042 l 1042 694 l 868 694 l 868 521 l 1042 521 l 1042 174 l 868 174 l 868 0 l 174 0 z "},"4":{"ha":1259,"x_min":0,"x_max":1042,"o":"m 694 521 l 694 868 l 521 868 l 521 694 l 347 694 l 347 521 l 694 521 m 694 0 l 694 347 l 0 347 l 0 694 l 174 694 l 174 868 l 347 868 l 347 1042 l 521 1042 l 521 1215 l 1042 1215 l 1042 0 l 694 0 z "},"5":{"ha":1259,"x_min":0,"x_max":1042,"o":"m 0 0 l 0 174 l 694 174 l 694 694 l 0 694 l 0 1215 l 1042 1215 l 1042 1042 l 347 1042 l 347 868 l 868 868 l 868 694 l 1042 694 l 1042 174 l 868 174 l 868 0 l 0 0 z "},"6":{"ha":1259,"x_min":0,"x_max":1042,"o":"m 694 174 l 694 521 l 347 521 l 347 174 l 694 174 m 174 0 l 174 174 l 0 174 l 0 868 l 174 868 l 174 1042 l 347 1042 l 347 1215 l 868 1215 l 868 1042 l 521 1042 l 521 868 l 347 868 l 347 694 l 868 694 l 868 521 l 1042 521 l 1042 174 l 868 174 l 868 0 l 174 0 z "},"7":{"ha":1259,"x_min":0,"x_max":1042,"o":"m 347 0 l 347 521 l 521 521 l 521 694 l 694 694 l 694 1042 l 347 1042 l 347 868 l 0 868 l 0 1215 l 1042 1215 l 1042 694 l 868 694 l 868 521 l 694 521 l 694 0 l 347 0 z "},"8":{"ha":1259,"x_min":0,"x_max":1042,"o":"m 694 174 l 694 521 l 347 521 l 347 174 l 694 174 m 694 694 l 694 1042 l 347 1042 l 347 694 l 694 694 m 174 0 l 174 174 l 0 174 l 0 521 l 174 521 l 174 694 l 0 694 l 0 1042 l 174 1042 l 174 1215 l 868 1215 l 868 1042 l 1042 1042 l 1042 694 l 868 694 l 868 521 l 1042 521 l 1042 174 l 868 174 l 868 0 l 174 0 z "},"9":{"ha":1259,"x_min":0,"x_max":1042,"o":"m 694 694 l 694 1042 l 347 1042 l 347 694 l 694 694 m 174 0 l 174 174 l 521 174 l 521 347 l 694 347 l 694 521 l 174 521 l 174 694 l 0 694 l 0 1042 l 174 1042 l 174 1215 l 868 1215 l 868 1042 l 1042 1042 l 1042 347 l 868 347 l 868 174 l 694 174 l 694 0 l 174 0 z "}," ":{"ha":217,"x_min":0,"x_max":0,"o":""},"!":{"ha":564,"x_min":0,"x_max":347,"o":"m 0 0 l 0 174 l 347 174 l 347 0 l 0 0 m 0 347 l 0 1215 l 347 1215 l 347 347 l 0 347 z "},"\"":{"ha":1085,"x_min":0,"x_max":868,"o":"m 0 694 l 0 868 l 174 868 l 174 1215 l 868 1215 l 868 868 l 694 868 l 694 694 l 0 694 z "},"#":{"ha":1259,"x_min":0,"x_max":1042,"o":"m 174 0 l 174 347 l 0 347 l 0 521 l 174 521 l 174 694 l 0 694 l 0 868 l 174 868 l 174 1215 l 868 1215 l 868 868 l 1042 868 l 1042 694 l 868 694 l 868 521 l 1042 521 l 1042 347 l 868 347 l 868 0 l 174 0 z "},"$":{"ha":1259,"x_min":0,"x_max":1042,"o":"m 347 0 l 347 174 l 0 174 l 0 347 l 694 347 l 694 521 l 174 521 l 174 694 l 0 694 l 0 868 l 174 868 l 174 1042 l 347 1042 l 347 1215 l 694 1215 l 694 1042 l 1042 1042 l 1042 868 l 347 868 l 347 694 l 868 694 l 868 521 l 1042 521 l 1042 347 l 868 347 l 868 174 l 694 174 l 694 0 l 347 0 z "},"%":{"ha":1259,"x_min":0,"x_max":1042,"o":"m 694 0 l 694 347 l 1042 347 l 1042 0 l 694 0 m 0 868 l 0 1215 l 347 1215 l 347 868 l 0 868 m 0 0 l 0 174 l 174 174 l 174 521 l 347 521 l 347 694 l 521 694 l 521 1042 l 694 1042 l 694 1215 l 1042 1215 l 1042 1042 l 868 1042 l 868 694 l 694 694 l 694 521 l 521 521 l 521 174 l 347 174 l 347 0 l 0 0 z "},"&":{"ha":1259,"x_min":0,"x_max":1042,"o":"m 521 174 l 521 347 l 347 347 l 347 174 l 521 174 m 174 0 l 174 174 l 0 174 l 0 521 l 174 521 l 174 694 l 347 694 l 347 868 l 174 868 l 174 1042 l 347 1042 l 347 1215 l 694 1215 l 694 1042 l 868 1042 l 868 868 l 694 868 l 694 694 l 1042 694 l 1042 521 l 868 521 l 868 174 l 1042 174 l 1042 0 l 174 0 z "},"'":{"ha":738,"x_min":0,"x_max":521,"o":"m 0 694 l 0 868 l 174 868 l 174 1215 l 521 1215 l 521 868 l 347 868 l 347 694 l 0 694 z "},"(":{"ha":1085,"x_min":0,"x_max":868,"o":"m 347 0 l 347 174 l 174 174 l 174 347 l 0 347 l 0 868 l 174 868 l 174 1042 l 347 1042 l 347 1215 l 868 1215 l 868 1042 l 521 1042 l 521 868 l 347 868 l 347 347 l 521 347 l 521 174 l 868 174 l 868 0 l 347 0 z "},")":{"ha":1085,"x_min":0,"x_max":868,"o":"m 0 0 l 0 174 l 347 174 l 347 347 l 521 347 l 521 868 l 347 868 l 347 1042 l 0 1042 l 0 1215 l 521 1215 l 521 1042 l 694 1042 l 694 868 l 868 868 l 868 347 l 694 347 l 694 174 l 521 174 l 521 0 l 0 0 z "},"*":{"ha":1085,"x_min":0,"x_max":868,"o":"m 0 347 l 0 521 l 174 521 l 174 694 l 0 694 l 0 868 l 347 868 l 347 694 l 521 694 l 521 868 l 868 868 l 868 694 l 694 694 l 694 521 l 868 521 l 868 347 l 521 347 l 521 521 l 347 521 l 347 347 l 0 347 z "},"+":{"ha":1259,"x_min":0,"x_max":1042,"o":"m 347 0 l 347 347 l 0 347 l 0 521 l 347 521 l 347 868 l 694 868 l 694 521 l 1042 521 l 1042 347 l 694 347 l 694 0 l 347 0 z "},",":{"ha":564,"x_min":0,"x_max":347,"o":"m 0 -174 l 0 347 l 347 347 l 347 -174 l 0 -174 z "},"-":{"ha":1259,"x_min":0,"x_max":1042,"o":"m 0 347 l 0 521 l 1042 521 l 1042 347 l 0 347 z "},".":{"ha":564,"x_min":0,"x_max":347,"o":"m 0 0 l 0 347 l 347 347 l 347 0 l 0 0 z "},"/":{"ha":1259,"x_min":0,"x_max":1042,"o":"m 0 0 l 0 174 l 174 174 l 174 521 l 347 521 l 347 694 l 521 694 l 521 1042 l 694 1042 l 694 1215 l 1042 1215 l 1042 1042 l 868 1042 l 868 694 l 694 694 l 694 521 l 521 521 l 521 174 l 347 174 l 347 0 l 0 0 z "},":":{"ha":564,"x_min":0,"x_max":347,"o":"m 0 0 l 0 347 l 347 347 l 347 0 l 0 0 m 0 694 l 0 1042 l 347 1042 l 347 694 l 0 694 z "},";":{"ha":564,"x_min":0,"x_max":347,"o":"m 0 -174 l 0 347 l 347 347 l 347 -174 l 0 -174 m 0 694 l 0 1042 l 347 1042 l 347 694 l 0 694 z "},"<":{"ha":1085,"x_min":0,"x_max":868,"o":"m 521 0 l 521 174 l 347 174 l 347 347 l 174 347 l 174 521 l 0 521 l 0 694 l 174 694 l 174 868 l 347 868 l 347 1042 l 521 1042 l 521 1215 l 868 1215 l 868 1042 l 694 1042 l 694 868 l 521 868 l 521 694 l 347 694 l 347 521 l 521 521 l 521 347 l 694 347 l 694 174 l 868 174 l 868 0 l 521 0 z "},"=":{"ha":1259,"x_min":0,"x_max":1042,"o":"m 0 174 l 0 347 l 1042 347 l 1042 174 l 0 174 m 0 694 l 0 868 l 1042 868 l 1042 694 l 0 694 z "},">":{"ha":1085,"x_min":0,"x_max":868,"o":"m 0 0 l 0 174 l 174 174 l 174 347 l 347 347 l 347 521 l 521 521 l 521 694 l 347 694 l 347 868 l 174 868 l 174 1042 l 0 1042 l 0 1215 l 347 1215 l 347 1042 l 521 1042 l 521 868 l 694 868 l 694 694 l 868 694 l 868 521 l 694 521 l 694 347 l 521 347 l 521 174 l 347 174 l 347 0 l 0 0 z "},"?":{"ha":1259,"x_min":0,"x_max":1042,"o":"m 347 0 l 347 174 l 694 174 l 694 0 l 347 0 m 347 347 l 347 521 l 521 521 l 521 694 l 694 694 l 694 1042 l 347 1042 l 347 868 l 0 868 l 0 1042 l 174 1042 l 174 1215 l 868 1215 l 868 1042 l 1042 1042 l 1042 694 l 868 694 l 868 521 l 694 521 l 694 347 l 347 347 z "},"@":{"ha":1432,"x_min":0,"x_max":1215,"o":"m 868 868 l 868 1042 l 347 1042 l 347 868 l 868 868 m 174 0 l 174 174 l 0 174 l 0 1042 l 174 1042 l 174 1215 l 1042 1215 l 1042 1042 l 1215 1042 l 1215 347 l 347 347 l 347 174 l 1215 174 l 1215 0 l 174 0 z "},"A":{"ha":1259,"x_min":0,"x_max":1042,"o":"m 694 868 l 694 1042 l 347 1042 l 347 868 l 694 868 m 0 0 l 0 1042 l 174 1042 l 174 1215 l 868 1215 l 868 1042 l 1042 1042 l 1042 0 l 694 0 l 694 694 l 347 694 l 347 0 l 0 0 z "},"B":{"ha":1259,"x_min":0,"x_max":1042,"o":"m 694 174 l 694 694 l 347 694 l 347 174 l 694 174 m 694 868 l 694 1042 l 347 1042 l 347 868 l 694 868 m 0 0 l 0 1215 l 868 1215 l 868 1042 l 1042 1042 l 1042 868 l 868 868 l 868 694 l 1042 694 l 1042 174 l 868 174 l 868 0 l 0 0 z "},"C":{"ha":1259,"x_min":0,"x_max":1042,"o":"m 174 0 l 174 174 l 0 174 l 0 1042 l 174 1042 l 174 1215 l 868 1215 l 868 1042 l 1042 1042 l 1042 868 l 694 868 l 694 1042 l 347 1042 l 347 174 l 694 174 l 694 347 l 1042 347 l 1042 174 l 868 174 l 868 0 l 174 0 z "},"D":{"ha":1259,"x_min":0,"x_max":1042,"o":"m 694 174 l 694 1042 l 347 1042 l 347 174 l 694 174 m 0 0 l 0 1215 l 868 1215 l 868 1042 l 1042 1042 l 1042 174 l 868 174 l 868 0 l 0 0 z "},"E":{"ha":1259,"x_min":0,"x_max":1042,"o":"m 0 0 l 0 1215 l 1042 1215 l 1042 1042 l 347 1042 l 347 868 l 694 868 l 694 694 l 347 694 l 347 174 l 1042 174 l 1042 0 l 0 0 z "},"F":{"ha":1259,"x_min":0,"x_max":1042,"o":"m 0 0 l 0 1215 l 1042 1215 l 1042 1042 l 347 1042 l 347 868 l 694 868 l 694 694 l 347 694 l 347 0 l 0 0 z "},"G":{"ha":1259,"x_min":0,"x_max":1042,"o":"m 174 0 l 174 174 l 0 174 l 0 1042 l 174 1042 l 174 1215 l 1042 1215 l 1042 1042 l 347 1042 l 347 174 l 694 174 l 694 694 l 521 694 l 521 868 l 1042 868 l 1042 174 l 868 174 l 868 0 l 174 0 z "},"H":{"ha":1259,"x_min":0,"x_max":1042,"o":"m 0 0 l 0 1215 l 347 1215 l 347 868 l 694 868 l 694 1215 l 1042 1215 l 1042 0 l 694 0 l 694 694 l 347 694 l 347 0 l 0 0 z "},"I":{"ha":911,"x_min":0,"x_max":694,"o":"m 0 0 l 0 174 l 174 174 l 174 1042 l 0 1042 l 0 1215 l 694 1215 l 694 1042 l 521 1042 l 521 174 l 694 174 l 694 0 l 0 0 z "},"J":{"ha":1259,"x_min":0,"x_max":1042,"o":"m 174 0 l 174 174 l 0 174 l 0 347 l 347 347 l 347 174 l 694 174 l 694 1215 l 1042 1215 l 1042 174 l 868 174 l 868 0 l 174 0 z "},"K":{"ha":1259,"x_min":0,"x_max":1042,"o":"m 0 0 l 0 1215 l 347 1215 l 347 868 l 521 868 l 521 1042 l 694 1042 l 694 1215 l 1042 1215 l 1042 1042 l 868 1042 l 868 868 l 694 868 l 694 694 l 868 694 l 868 521 l 1042 521 l 1042 0 l 694 0 l 694 521 l 521 521 l 521 694 l 347 694 l 347 0 l 0 0 z "},"L":{"ha":1259,"x_min":0,"x_max":1042,"o":"m 0 0 l 0 1215 l 347 1215 l 347 174 l 1042 174 l 1042 0 l 0 0 z "},"M":{"ha":1259,"x_min":0,"x_max":1042,"o":"m 0 0 l 0 1215 l 347 1215 l 347 1042 l 694 1042 l 694 1215 l 1042 1215 l 1042 0 l 694 0 l 694 694 l 347 694 l 347 0 l 0 0 z "},"N":{"ha":1259,"x_min":0,"x_max":1042,"o":"m 0 0 l 0 1215 l 347 1215 l 347 1042 l 521 1042 l 521 868 l 694 868 l 694 1215 l 1042 1215 l 1042 0 l 694 0 l 694 521 l 521 521 l 521 694 l 347 694 l 347 0 l 0 0 z "},"O":{"ha":1259,"x_min":0,"x_max":1042,"o":"m 694 174 l 694 1042 l 347 1042 l 347 174 l 694 174 m 174 0 l 174 174 l 0 174 l 0 1042 l 174 1042 l 174 1215 l 868 1215 l 868 1042 l 1042 1042 l 1042 174 l 868 174 l 868 0 l 174 0 z "},"P":{"ha":1259,"x_min":0,"x_max":1042,"o":"m 694 868 l 694 1042 l 347 1042 l 347 868 l 694 868 m 0 0 l 0 1215 l 868 1215 l 868 1042 l 1042 1042 l 1042 868 l 868 868 l 868 694 l 347 694 l 347 0 l 0 0 z "},"Q":{"ha":1259,"x_min":0,"x_max":1042,"o":"m 521 174 l 521 347 l 694 347 l 694 1042 l 347 1042 l 347 174 l 521 174 m 174 0 l 174 174 l 0 174 l 0 1042 l 174 1042 l 174 1215 l 868 1215 l 868 1042 l 1042 1042 l 1042 347 l 868 347 l 868 174 l 1042 174 l 1042 0 l 174 0 z "},"R":{"ha":1259,"x_min":0,"x_max":1042,"o":"m 694 868 l 694 1042 l 347 1042 l 347 868 l 694 868 m 0 0 l 0 1215 l 868 1215 l 868 1042 l 1042 1042 l 1042 868 l 868 868 l 868 694 l 1042 694 l 1042 0 l 694 0 l 694 694 l 347 694 l 347 0 l 0 0 z "},"S":{"ha":1259,"x_min":0,"x_max":1042,"o":"m 174 0 l 174 174 l 0 174 l 0 347 l 347 347 l 347 174 l 694 174 l 694 694 l 174 694 l 174 868 l 0 868 l 0 1042 l 174 1042 l 174 1215 l 1042 1215 l 1042 1042 l 347 1042 l 347 868 l 868 868 l 868 694 l 1042 694 l 1042 174 l 868 174 l 868 0 l 174 0 z "},"T":{"ha":1259,"x_min":0,"x_max":1042,"o":"m 347 0 l 347 1042 l 0 1042 l 0 1215 l 1042 1215 l 1042 1042 l 694 1042 l 694 0 l 347 0 z "},"U":{"ha":1259,"x_min":0,"x_max":1042,"o":"m 174 0 l 174 174 l 0 174 l 0 1215 l 347 1215 l 347 174 l 694 174 l 694 1215 l 1042 1215 l 1042 174 l 868 174 l 868 0 l 174 0 z "},"V":{"ha":1259,"x_min":0,"x_max":1042,"o":"m 347 0 l 347 174 l 174 174 l 174 521 l 0 521 l 0 1215 l 347 1215 l 347 521 l 694 521 l 694 1215 l 1042 1215 l 1042 521 l 868 521 l 868 174 l 694 174 l 694 0 l 347 0 z "},"W":{"ha":1259,"x_min":0,"x_max":1042,"o":"m 0 0 l 0 1215 l 347 1215 l 347 521 l 694 521 l 694 1215 l 1042 1215 l 1042 0 l 694 0 l 694 174 l 347 174 l 347 0 l 0 0 z "},"X":{"ha":1259,"x_min":0,"x_max":1042,"o":"m 0 0 l 0 521 l 174 521 l 174 694 l 347 694 l 347 868 l 174 868 l 174 1042 l 0 1042 l 0 1215 l 347 1215 l 347 1042 l 694 1042 l 694 1215 l 1042 1215 l 1042 1042 l 868 1042 l 868 868 l 694 868 l 694 694 l 868 694 l 868 521 l 1042 521 l 1042 0 l 694 0 l 694 521 l 347 521 l 347 0 l 0 0 z "},"Y":{"ha":1259,"x_min":0,"x_max":1042,"o":"m 347 0 l 347 868 l 174 868 l 174 1042 l 0 1042 l 0 1215 l 347 1215 l 347 1042 l 694 1042 l 694 1215 l 1042 1215 l 1042 1042 l 868 1042 l 868 868 l 694 868 l 694 0 l 347 0 z "},"Z":{"ha":1259,"x_min":0,"x_max":1042,"o":"m 0 0 l 0 347 l 174 347 l 174 521 l 347 521 l 347 694 l 521 694 l 521 868 l 694 868 l 694 1042 l 0 1042 l 0 1215 l 1042 1215 l 1042 868 l 868 868 l 868 694 l 694 694 l 694 521 l 521 521 l 521 347 l 347 347 l 347 174 l 1042 174 l 1042 0 l 0 0 z "},"[":{"ha":738,"x_min":0,"x_max":521,"o":"m 0 0 l 0 1215 l 521 1215 l 521 1042 l 347 1042 l 347 174 l 521 174 l 521 0 l 0 0 z "},"\\":{"ha":1259,"x_min":0,"x_max":1042,"o":"m 694 0 l 694 174 l 521 174 l 521 521 l 347 521 l 347 694 l 174 694 l 174 1042 l 0 1042 l 0 1215 l 347 1215 l 347 1042 l 521 1042 l 521 694 l 694 694 l 694 521 l 868 521 l 868 174 l 1042 174 l 1042 0 l 694 0 z "},"]":{"ha":911,"x_min":0,"x_max":694,"o":"m 0 0 l 0 174 l 347 174 l 347 1042 l 0 1042 l 0 1215 l 694 1215 l 694 0 l 0 0 z "},"^":{"ha":1259,"x_min":0,"x_max":1042,"o":"m 0 694 l 0 868 l 174 868 l 174 1042 l 347 1042 l 347 1215 l 694 1215 l 694 1042 l 868 1042 l 868 868 l 1042 868 l 1042 694 l 694 694 l 694 868 l 347 868 l 347 694 l 0 694 z "},"_":{"ha":1259,"x_min":0,"x_max":1042,"o":"m 0 -174 l 0 0 l 1042 0 l 1042 -174 l 0 -174 z "},"`":{"ha":738,"x_min":0,"x_max":521,"o":"m 174 694 l 174 868 l 0 868 l 0 1215 l 347 1215 l 347 868 l 521 868 l 521 694 l 174 694 z "},"a":{"ha":1259,"x_min":0,"x_max":1042,"o":"m 694 174 l 694 347 l 347 347 l 347 174 l 694 174 m 174 0 l 174 174 l 0 174 l 0 347 l 174 347 l 174 521 l 694 521 l 694 694 l 174 694 l 174 868 l 868 868 l 868 694 l 1042 694 l 1042 0 l 174 0 z "},"b":{"ha":1259,"x_min":0,"x_max":1042,"o":"m 694 174 l 694 694 l 521 694 l 521 521 l 347 521 l 347 174 l 694 174 m 0 0 l 0 1215 l 347 1215 l 347 868 l 868 868 l 868 694 l 1042 694 l 1042 174 l 868 174 l 868 0 l 0 0 z "},"c":{"ha":1259,"x_min":0,"x_max":1042,"o":"m 174 0 l 174 174 l 0 174 l 0 694 l 174 694 l 174 868 l 868 868 l 868 694 l 1042 694 l 1042 521 l 694 521 l 694 694 l 347 694 l 347 174 l 694 174 l 694 347 l 1042 347 l 1042 174 l 868 174 l 868 0 l 174 0 z "},"d":{"ha":1259,"x_min":0,"x_max":1042,"o":"m 694 174 l 694 521 l 521 521 l 521 694 l 347 694 l 347 174 l 694 174 m 174 0 l 174 174 l 0 174 l 0 694 l 174 694 l 174 868 l 694 868 l 694 1215 l 1042 1215 l 1042 0 l 174 0 z "},"e":{"ha":1259,"x_min":0,"x_max":1042,"o":"m 694 521 l 694 694 l 347 694 l 347 521 l 694 521 m 174 0 l 174 174 l 0 174 l 0 694 l 174 694 l 174 868 l 868 868 l 868 694 l 1042 694 l 1042 347 l 347 347 l 347 174 l 1042 174 l 1042 0 l 174 0 z "},"f":{"ha":1085,"x_min":0,"x_max":868,"o":"m 174 0 l 174 694 l 0 694 l 0 868 l 174 868 l 174 1042 l 347 1042 l 347 1215 l 868 1215 l 868 1042 l 521 1042 l 521 868 l 868 868 l 868 694 l 521 694 l 521 0 l 174 0 z "},"g":{"ha":1259,"x_min":0,"x_max":1042,"o":"m 694 347 l 694 694 l 347 694 l 347 347 l 694 347 m 0 -174 l 0 0 l 694 0 l 694 174 l 174 174 l 174 347 l 0 347 l 0 694 l 174 694 l 174 868 l 1042 868 l 1042 0 l 868 0 l 868 -174 l 0 -174 z "},"h":{"ha":1259,"x_min":0,"x_max":1042,"o":"m 0 0 l 0 1215 l 347 1215 l 347 868 l 868 868 l 868 694 l 1042 694 l 1042 0 l 694 0 l 694 694 l 521 694 l 521 521 l 347 521 l 347 0 l 0 0 z "},"i":{"ha":564,"x_min":0,"x_max":347,"o":"m 0 0 l 0 868 l 347 868 l 347 0 l 0 0 m 0 1042 l 0 1215 l 347 1215 l 347 1042 l 0 1042 z "},"j":{"ha":1259,"x_min":0,"x_max":1042,"o":"m 174 0 l 174 174 l 0 174 l 0 521 l 347 521 l 347 174 l 694 174 l 694 868 l 1042 868 l 1042 174 l 868 174 l 868 0 l 174 0 m 694 1042 l 694 1215 l 1042 1215 l 1042 1042 l 694 1042 z "},"k":{"ha":1085,"x_min":0,"x_max":868,"o":"m 0 0 l 0 1215 l 347 1215 l 347 694 l 521 694 l 521 868 l 868 868 l 868 694 l 694 694 l 694 521 l 521 521 l 521 347 l 694 347 l 694 174 l 868 174 l 868 0 l 521 0 l 521 174 l 347 174 l 347 0 l 0 0 z "},"l":{"ha":738,"x_min":0,"x_max":521,"o":"m 174 0 l 174 174 l 0 174 l 0 1215 l 347 1215 l 347 174 l 521 174 l 521 0 l 174 0 z "},"m":{"ha":1259,"x_min":0,"x_max":1042,"o":"m 0 0 l 0 868 l 868 868 l 868 694 l 1042 694 l 1042 0 l 694 0 l 694 347 l 347 347 l 347 0 l 0 0 z "},"n":{"ha":1259,"x_min":0,"x_max":1042,"o":"m 0 0 l 0 868 l 868 868 l 868 694 l 1042 694 l 1042 0 l 694 0 l 694 694 l 347 694 l 347 0 l 0 0 z "},"o":{"ha":1259,"x_min":0,"x_max":1042,"o":"m 694 174 l 694 694 l 347 694 l 347 174 l 694 174 m 174 0 l 174 174 l 0 174 l 0 694 l 174 694 l 174 868 l 868 868 l 868 694 l 1042 694 l 1042 174 l 868 174 l 868 0 l 174 0 z "},"p":{"ha":1259,"x_min":0,"x_max":1042,"o":"m 694 347 l 694 694 l 521 694 l 521 521 l 347 521 l 347 347 l 694 347 m 0 -174 l 0 868 l 868 868 l 868 694 l 1042 694 l 1042 347 l 868 347 l 868 174 l 347 174 l 347 -174 l 0 -174 z "},"q":{"ha":1259,"x_min":0,"x_max":1042,"o":"m 694 347 l 694 521 l 521 521 l 521 694 l 347 694 l 347 347 l 694 347 m 694 -174 l 694 174 l 174 174 l 174 347 l 0 347 l 0 694 l 174 694 l 174 868 l 1042 868 l 1042 -174 l 694 -174 z "},"r":{"ha":1259,"x_min":0,"x_max":1042,"o":"m 0 0 l 0 868 l 868 868 l 868 694 l 1042 694 l 1042 521 l 694 521 l 694 694 l 521 694 l 521 521 l 347 521 l 347 0 l 0 0 z "},"s":{"ha":1259,"x_min":0,"x_max":1042,"o":"m 0 0 l 0 174 l 694 174 l 694 347 l 174 347 l 174 521 l 0 521 l 0 694 l 174 694 l 174 868 l 1042 868 l 1042 694 l 347 694 l 347 521 l 868 521 l 868 347 l 1042 347 l 1042 174 l 868 174 l 868 0 l 0 0 z "},"t":{"ha":911,"x_min":0,"x_max":694,"o":"m 347 0 l 347 174 l 174 174 l 174 868 l 0 868 l 0 1042 l 174 1042 l 174 1215 l 521 1215 l 521 1042 l 694 1042 l 694 868 l 521 868 l 521 174 l 694 174 l 694 0 l 347 0 z "},"u":{"ha":1259,"x_min":0,"x_max":1042,"o":"m 174 0 l 174 174 l 0 174 l 0 868 l 347 868 l 347 174 l 694 174 l 694 868 l 1042 868 l 1042 0 l 174 0 z "},"v":{"ha":1259,"x_min":0,"x_max":1042,"o":"m 347 0 l 347 174 l 174 174 l 174 347 l 0 347 l 0 868 l 347 868 l 347 347 l 694 347 l 694 868 l 1042 868 l 1042 347 l 868 347 l 868 174 l 694 174 l 694 0 l 347 0 z "},"w":{"ha":1259,"x_min":0,"x_max":1042,"o":"m 174 0 l 174 174 l 0 174 l 0 868 l 347 868 l 347 521 l 694 521 l 694 868 l 1042 868 l 1042 0 l 174 0 z "},"x":{"ha":1259,"x_min":0,"x_max":1042,"o":"m 0 0 l 0 174 l 174 174 l 174 347 l 347 347 l 347 521 l 174 521 l 174 694 l 0 694 l 0 868 l 347 868 l 347 694 l 694 694 l 694 868 l 1042 868 l 1042 694 l 868 694 l 868 521 l 694 521 l 694 347 l 868 347 l 868 174 l 1042 174 l 1042 0 l 694 0 l 694 174 l 347 174 l 347 0 l 0 0 z "},"y":{"ha":1259,"x_min":0,"x_max":1042,"o":"m 0 -174 l 0 0 l 694 0 l 694 174 l 174 174 l 174 347 l 0 347 l 0 868 l 347 868 l 347 347 l 694 347 l 694 868 l 1042 868 l 1042 0 l 868 0 l 868 -174 l 0 -174 z "},"z":{"ha":1259,"x_min":0,"x_max":1042,"o":"m 0 0 l 0 174 l 174 174 l 174 347 l 347 347 l 347 521 l 521 521 l 521 694 l 0 694 l 0 868 l 1042 868 l 1042 694 l 868 694 l 868 521 l 694 521 l 694 347 l 521 347 l 521 174 l 1042 174 l 1042 0 l 0 0 z "},"{":{"ha":1085,"x_min":0,"x_max":868,"o":"m 347 0 l 347 174 l 174 174 l 174 521 l 0 521 l 0 694 l 174 694 l 174 1042 l 347 1042 l 347 1215 l 868 1215 l 868 1042 l 521 1042 l 521 694 l 347 694 l 347 521 l 521 521 l 521 174 l 868 174 l 868 0 l 347 0 z "},"|":{"ha":564,"x_min":0,"x_max":347,"o":"m 0 0 l 0 521 l 347 521 l 347 0 l 0 0 m 0 694 l 0 1215 l 347 1215 l 347 694 l 0 694 z "},"}":{"ha":1085,"x_min":0,"x_max":868,"o":"m 0 0 l 0 174 l 347 174 l 347 521 l 521 521 l 521 694 l 347 694 l 347 1042 l 0 1042 l 0 1215 l 521 1215 l 521 1042 l 694 1042 l 694 694 l 868 694 l 868 521 l 694 521 l 694 174 l 521 174 l 521 0 l 0 0 z "},"~":{"ha":1432,"x_min":0,"x_max":1215,"o":"m 0 868 l 0 1042 l 174 1042 l 174 1215 l 694 1215 l 694 1042 l 868 1042 l 868 1215 l 1215 1215 l 1215 1042 l 1042 1042 l 1042 868 l 521 868 l 521 1042 l 347 1042 l 347 868 l 0 868 z "},"¡":{"ha":564,"x_min":0,"x_max":347,"o":"m 0 0 l 0 694 l 347 694 l 347 0 l 0 0 m 0 868 l 0 1042 l 347 1042 l 347 868 l 0 868 z "},"£":{"ha":1259,"x_min":0,"x_max":1042,"o":"m 0 0 l 0 174 l 174 174 l 174 521 l 0 521 l 0 694 l 174 694 l 174 1042 l 347 1042 l 347 1215 l 868 1215 l 868 1042 l 1042 1042 l 1042 868 l 694 868 l 694 1042 l 521 1042 l 521 694 l 868 694 l 868 521 l 521 521 l 521 174 l 1042 174 l 1042 0 l 0 0 z "},"¦":{"ha":564,"x_min":0,"x_max":347,"o":"m 0 0 l 0 521 l 347 521 l 347 0 l 0 0 m 0 694 l 0 1215 l 347 1215 l 347 694 l 0 694 z "},"§":{"ha":1780,"x_min":0,"x_max":1563,"o":"m 694 0 l 694 174 l 521 174 l 521 0 l 694 0 m 174 -174 l 174 0 l 0 0 l 0 174 l 347 174 l 347 347 l 174 347 l 174 694 l 347 694 l 347 868 l 174 868 l 174 1042 l 347 1042 l 347 1215 l 1389 1215 l 1389 1042 l 1563 1042 l 1563 868 l 1042 868 l 1042 1042 l 694 1042 l 694 868 l 1042 868 l 1042 694 l 1215 694 l 1215 347 l 1042 347 l 1042 174 l 1215 174 l 1215 0 l 1042 0 l 1042 -174 l 174 -174 z "},"«":{"ha":1259,"x_min":0,"x_max":1042,"o":"m 347 174 l 347 347 l 174 347 l 174 521 l 0 521 l 0 694 l 174 694 l 174 868 l 347 868 l 347 1042 l 1042 1042 l 1042 868 l 868 868 l 868 694 l 694 694 l 694 521 l 868 521 l 868 347 l 1042 347 l 1042 174 l 347 174 z "},"¬":{"ha":1259,"x_min":0,"x_max":1042,"o":"m 694 174 l 694 521 l 0 521 l 0 694 l 1042 694 l 1042 174 l 694 174 z "},"­":{"ha":738,"x_min":0,"x_max":521,"o":"m 0 347 l 0 521 l 521 521 l 521 347 l 0 347 z "},"®":{"ha":1432,"x_min":0,"x_max":1215,"o":"m 868 347 l 868 521 l 694 521 l 694 347 l 868 347 m 174 0 l 174 174 l 0 174 l 0 694 l 174 694 l 174 868 l 1042 868 l 1042 694 l 1215 694 l 1215 174 l 1042 174 l 1042 0 l 174 0 z "},"°":{"ha":1259,"x_min":0,"x_max":1042,"o":"m 174 521 l 174 694 l 0 694 l 0 1042 l 174 1042 l 174 1215 l 868 1215 l 868 1042 l 1042 1042 l 1042 694 l 868 694 l 868 521 l 174 521 z "},"±":{"ha":1432,"x_min":0,"x_max":1215,"o":"m 0 0 l 0 174 l 1215 174 l 1215 0 l 0 0 m 347 347 l 347 694 l 0 694 l 0 868 l 347 868 l 347 1215 l 868 1215 l 868 868 l 1215 868 l 1215 694 l 868 694 l 868 347 l 347 347 z "},"²":{"ha":1085,"x_min":0,"x_max":868,"o":"m 0 347 l 0 694 l 174 694 l 174 868 l 347 868 l 347 1042 l 0 1042 l 0 1215 l 694 1215 l 694 1042 l 868 1042 l 868 868 l 694 868 l 694 694 l 521 694 l 521 521 l 868 521 l 868 347 l 0 347 z "},"´":{"ha":738,"x_min":0,"x_max":521,"o":"m 0 694 l 0 868 l 174 868 l 174 1215 l 521 1215 l 521 868 l 347 868 l 347 694 l 0 694 z "},"µ":{"ha":1606,"x_min":0,"x_max":1389,"o":"m 0 0 l 0 174 l 174 174 l 174 1215 l 694 1215 l 694 521 l 868 521 l 868 1215 l 1389 1215 l 1389 521 l 1215 521 l 1215 347 l 694 347 l 694 174 l 521 174 l 521 0 l 0 0 z "},"¶":{"ha":1780,"x_min":0,"x_max":1563,"o":"m 521 0 l 521 521 l 174 521 l 174 694 l 0 694 l 0 1042 l 174 1042 l 174 1215 l 1563 1215 l 1563 0 l 521 0 z "},"·":{"ha":738,"x_min":0,"x_max":521,"o":"m 0 347 l 0 694 l 521 694 l 521 347 l 0 347 z "},"»":{"ha":1259,"x_min":0,"x_max":1042,"o":"m 0 174 l 0 347 l 174 347 l 174 521 l 347 521 l 347 694 l 174 694 l 174 868 l 0 868 l 0 1042 l 694 1042 l 694 868 l 868 868 l 868 694 l 1042 694 l 1042 521 l 868 521 l 868 347 l 694 347 l 694 174 l 0 174 z "},"¼":{"ha":1259,"x_min":0,"x_max":1042,"o":"m 0 868 l 0 1215 l 347 1215 l 347 868 l 0 868 m 0 0 l 0 174 l 174 174 l 174 521 l 347 521 l 347 694 l 521 694 l 521 1042 l 694 1042 l 694 1215 l 1042 1215 l 1042 1042 l 868 1042 l 868 694 l 694 694 l 694 521 l 1042 521 l 1042 0 l 694 0 l 694 174 l 347 174 l 347 0 l 0 0 z "},"½":{"ha":1259,"x_min":0,"x_max":1042,"o":"m 0 868 l 0 1215 l 347 1215 l 347 868 l 0 868 m 0 0 l 0 174 l 174 174 l 174 521 l 347 521 l 347 694 l 521 694 l 521 1042 l 694 1042 l 694 1215 l 1042 1215 l 1042 1042 l 868 1042 l 868 694 l 694 694 l 694 521 l 521 521 l 521 347 l 694 347 l 694 521 l 1042 521 l 1042 347 l 868 347 l 868 174 l 1042 174 l 1042 0 l 521 0 l 521 174 l 347 174 l 347 0 l 0 0 z "},"¿":{"ha":1259,"x_min":0,"x_max":1042,"o":"m 174 0 l 174 174 l 0 174 l 0 521 l 174 521 l 174 694 l 347 694 l 347 868 l 694 868 l 694 694 l 521 694 l 521 521 l 347 521 l 347 174 l 694 174 l 694 347 l 1042 347 l 1042 174 l 868 174 l 868 0 l 174 0 m 347 1042 l 347 1215 l 694 1215 l 694 1042 l 347 1042 z "},"À":{"ha":1259,"x_min":0,"x_max":1042,"o":"m 694 174 l 694 347 l 347 347 l 347 174 l 694 174 m 174 0 l 174 174 l 0 174 l 0 347 l 174 347 l 174 521 l 694 521 l 694 694 l 174 694 l 174 868 l 868 868 l 868 694 l 1042 694 l 1042 0 l 174 0 m 0 1042 l 0 1215 l 521 1215 l 521 1042 l 0 1042 z "},"Á":{"ha":1259,"x_min":0,"x_max":1042,"o":"m 694 174 l 694 347 l 347 347 l 347 174 l 694 174 m 174 0 l 174 174 l 0 174 l 0 347 l 174 347 l 174 521 l 694 521 l 694 694 l 174 694 l 174 868 l 868 868 l 868 694 l 1042 694 l 1042 0 l 174 0 m 521 1042 l 521 1215 l 1042 1215 l 1042 1042 l 521 1042 z "},"Â":{"ha":1259,"x_min":0,"x_max":1042,"o":"m 694 174 l 694 347 l 347 347 l 347 174 l 694 174 m 694 868 l 694 1042 l 347 1042 l 347 868 l 694 868 m 174 0 l 174 174 l 0 174 l 0 347 l 174 347 l 174 521 l 694 521 l 694 694 l 174 694 l 174 868 l 0 868 l 0 1042 l 174 1042 l 174 1215 l 868 1215 l 868 1042 l 1042 1042 l 1042 868 l 868 868 l 868 694 l 1042 694 l 1042 0 l 174 0 z "},"Ä":{"ha":1259,"x_min":0,"x_max":1042,"o":"m 694 694 l 694 868 l 347 868 l 347 694 l 694 694 m 0 0 l 0 868 l 174 868 l 174 1042 l 0 1042 l 0 1215 l 347 1215 l 347 1042 l 694 1042 l 694 1215 l 1042 1215 l 1042 1042 l 868 1042 l 868 868 l 1042 868 l 1042 0 l 694 0 l 694 521 l 347 521 l 347 0 l 0 0 z "},"Å":{"ha":1259,"x_min":0,"x_max":1042,"o":"m 694 521 l 694 694 l 347 694 l 347 521 l 694 521 m 0 0 l 0 694 l 174 694 l 174 868 l 868 868 l 868 694 l 1042 694 l 1042 0 l 694 0 l 694 347 l 347 347 l 347 0 l 0 0 m 347 1042 l 347 1215 l 694 1215 l 694 1042 l 347 1042 z "},"Æ":{"ha":1259,"x_min":0,"x_max":1042,"o":"m 0 0 l 0 1042 l 174 1042 l 174 1215 l 1042 1215 l 1042 1042 l 694 1042 l 694 868 l 868 868 l 868 694 l 694 694 l 694 174 l 1042 174 l 1042 0 l 0 0 z "},"Ç":{"ha":1259,"x_min":0,"x_max":1042,"o":"m 347 -174 l 347 0 l 694 0 l 694 174 l 174 174 l 174 347 l 0 347 l 0 1042 l 174 1042 l 174 1215 l 868 1215 l 868 1042 l 1042 1042 l 1042 868 l 694 868 l 694 1042 l 347 1042 l 347 347 l 694 347 l 694 521 l 1042 521 l 1042 347 l 868 347 l 868 174 l 1042 174 l 1042 0 l 868 0 l 868 -174 l 347 -174 z "},"È":{"ha":1259,"x_min":0,"x_max":1042,"o":"m 694 521 l 694 694 l 347 694 l 347 521 l 694 521 m 174 0 l 174 174 l 0 174 l 0 694 l 174 694 l 174 868 l 868 868 l 868 694 l 1042 694 l 1042 347 l 347 347 l 347 174 l 1042 174 l 1042 0 l 174 0 m 0 1042 l 0 1215 l 521 1215 l 521 1042 l 0 1042 z "},"É":{"ha":1259,"x_min":0,"x_max":1042,"o":"m 0 0 l 0 868 l 1042 868 l 1042 694 l 347 694 l 347 521 l 694 521 l 694 347 l 347 347 l 347 174 l 1042 174 l 1042 0 l 0 0 m 521 1042 l 521 1215 l 1042 1215 l 1042 1042 l 521 1042 z "},"Ê":{"ha":1259,"x_min":0,"x_max":1042,"o":"m 694 521 l 694 694 l 347 694 l 347 521 l 694 521 m 694 868 l 694 1042 l 347 1042 l 347 868 l 694 868 m 174 0 l 174 174 l 0 174 l 0 694 l 174 694 l 174 868 l 0 868 l 0 1042 l 174 1042 l 174 1215 l 868 1215 l 868 1042 l 1042 1042 l 1042 868 l 868 868 l 868 694 l 1042 694 l 1042 347 l 347 347 l 347 174 l 1042 174 l 1042 0 l 174 0 z "},"Ë":{"ha":1259,"x_min":0,"x_max":1042,"o":"m 694 521 l 694 694 l 347 694 l 347 521 l 694 521 m 174 0 l 174 174 l 0 174 l 0 694 l 174 694 l 174 868 l 868 868 l 868 694 l 1042 694 l 1042 347 l 347 347 l 347 174 l 1042 174 l 1042 0 l 174 0 m 174 1042 l 174 1215 l 868 1215 l 868 1042 l 174 1042 z "},"Ì":{"ha":738,"x_min":0,"x_max":521,"o":"m 174 0 l 174 868 l 521 868 l 521 0 l 174 0 m 0 1042 l 0 1215 l 521 1215 l 521 1042 l 0 1042 z "},"Í":{"ha":738,"x_min":0,"x_max":521,"o":"m 0 0 l 0 868 l 347 868 l 347 0 l 0 0 m 0 1042 l 0 1215 l 521 1215 l 521 1042 l 0 1042 z "},"Î":{"ha":1259,"x_min":0,"x_max":1042,"o":"m 347 0 l 347 868 l 694 868 l 694 0 l 347 0 m 0 868 l 0 1042 l 174 1042 l 174 1215 l 868 1215 l 868 1042 l 1042 1042 l 1042 868 l 694 868 l 694 1042 l 347 1042 l 347 868 l 0 868 z "},"Ï":{"ha":911,"x_min":0,"x_max":694,"o":"m 174 0 l 174 868 l 521 868 l 521 0 l 174 0 m 0 1042 l 0 1215 l 694 1215 l 694 1042 l 0 1042 z "},"Ñ":{"ha":1259,"x_min":0,"x_max":1042,"o":"m 0 0 l 0 868 l 347 868 l 347 694 l 521 694 l 521 521 l 694 521 l 694 868 l 1042 868 l 1042 0 l 694 0 l 694 174 l 521 174 l 521 347 l 347 347 l 347 0 l 0 0 m 0 1042 l 0 1215 l 1042 1215 l 1042 1042 l 0 1042 z "},"Ò":{"ha":1259,"x_min":0,"x_max":1042,"o":"m 694 174 l 694 694 l 347 694 l 347 174 l 694 174 m 174 0 l 174 174 l 0 174 l 0 694 l 174 694 l 174 868 l 868 868 l 868 694 l 1042 694 l 1042 174 l 868 174 l 868 0 l 174 0 m 0 1042 l 0 1215 l 521 1215 l 521 1042 l 0 1042 z "},"Ó":{"ha":1259,"x_min":0,"x_max":1042,"o":"m 694 174 l 694 694 l 347 694 l 347 174 l 694 174 m 174 0 l 174 174 l 0 174 l 0 694 l 174 694 l 174 868 l 868 868 l 868 694 l 1042 694 l 1042 174 l 868 174 l 868 0 l 174 0 m 521 1042 l 521 1215 l 1042 1215 l 1042 1042 l 521 1042 z "},"Ô":{"ha":1259,"x_min":0,"x_max":1042,"o":"m 694 174 l 694 694 l 347 694 l 347 174 l 694 174 m 694 868 l 694 1042 l 347 1042 l 347 868 l 694 868 m 174 0 l 174 174 l 0 174 l 0 694 l 174 694 l 174 868 l 0 868 l 0 1042 l 174 1042 l 174 1215 l 868 1215 l 868 1042 l 1042 1042 l 1042 868 l 868 868 l 868 694 l 1042 694 l 1042 174 l 868 174 l 868 0 l 174 0 z "},"Ö":{"ha":1259,"x_min":0,"x_max":1042,"o":"m 694 174 l 694 868 l 347 868 l 347 174 l 694 174 m 174 0 l 174 174 l 0 174 l 0 868 l 174 868 l 174 1042 l 0 1042 l 0 1215 l 347 1215 l 347 1042 l 694 1042 l 694 1215 l 1042 1215 l 1042 1042 l 868 1042 l 868 868 l 1042 868 l 1042 174 l 868 174 l 868 0 l 174 0 z "},"×":{"ha":911,"x_min":0,"x_max":694,"o":"m 0 347 l 0 521 l 174 521 l 174 694 l 0 694 l 0 868 l 694 868 l 694 694 l 521 694 l 521 521 l 694 521 l 694 347 l 0 347 z "},"Ø":{"ha":1259,"x_min":0,"x_max":1042,"o":"m 694 174 l 694 521 l 521 521 l 521 347 l 347 347 l 347 174 l 694 174 m 521 694 l 521 868 l 694 868 l 694 1042 l 347 1042 l 347 694 l 521 694 m 174 0 l 174 174 l 0 174 l 0 1042 l 174 1042 l 174 1215 l 868 1215 l 868 1042 l 1042 1042 l 1042 174 l 868 174 l 868 0 l 174 0 z "},"Ù":{"ha":1259,"x_min":0,"x_max":1042,"o":"m 174 0 l 174 174 l 0 174 l 0 868 l 347 868 l 347 174 l 694 174 l 694 868 l 1042 868 l 1042 0 l 174 0 m 0 1042 l 0 1215 l 521 1215 l 521 1042 l 0 1042 z "},"Ú":{"ha":1259,"x_min":0,"x_max":1042,"o":"m 174 0 l 174 174 l 0 174 l 0 868 l 347 868 l 347 174 l 694 174 l 694 868 l 1042 868 l 1042 0 l 174 0 m 521 1042 l 521 1215 l 1042 1215 l 1042 1042 l 521 1042 z "},"Û":{"ha":1259,"x_min":0,"x_max":1042,"o":"m 174 0 l 174 174 l 0 174 l 0 694 l 347 694 l 347 174 l 694 174 l 694 694 l 1042 694 l 1042 0 l 174 0 m 0 868 l 0 1042 l 174 1042 l 174 1215 l 868 1215 l 868 1042 l 1042 1042 l 1042 868 l 694 868 l 694 1042 l 347 1042 l 347 868 l 0 868 z "},"Ü":{"ha":1259,"x_min":0,"x_max":1042,"o":"m 174 0 l 174 174 l 0 174 l 0 868 l 347 868 l 347 174 l 694 174 l 694 868 l 1042 868 l 1042 174 l 868 174 l 868 0 l 174 0 m 0 1042 l 0 1215 l 347 1215 l 347 1042 l 0 1042 m 694 1042 l 694 1215 l 1042 1215 l 1042 1042 l 694 1042 z "},"à":{"ha":1259,"x_min":0,"x_max":1042,"o":"m 694 174 l 694 347 l 347 347 l 347 174 l 694 174 m 174 0 l 174 174 l 0 174 l 0 347 l 174 347 l 174 521 l 694 521 l 694 694 l 174 694 l 174 868 l 868 868 l 868 694 l 1042 694 l 1042 0 l 174 0 m 0 1042 l 0 1215 l 521 1215 l 521 1042 l 0 1042 z "},"á":{"ha":1259,"x_min":0,"x_max":1042,"o":"m 694 174 l 694 347 l 347 347 l 347 174 l 694 174 m 174 0 l 174 174 l 0 174 l 0 347 l 174 347 l 174 521 l 694 521 l 694 694 l 174 694 l 174 868 l 868 868 l 868 694 l 1042 694 l 1042 0 l 174 0 m 521 1042 l 521 1215 l 1042 1215 l 1042 1042 l 521 1042 z "},"â":{"ha":1259,"x_min":0,"x_max":1042,"o":"m 694 174 l 694 347 l 347 347 l 347 174 l 694 174 m 694 868 l 694 1042 l 347 1042 l 347 868 l 694 868 m 174 0 l 174 174 l 0 174 l 0 347 l 174 347 l 174 521 l 694 521 l 694 694 l 174 694 l 174 868 l 0 868 l 0 1042 l 174 1042 l 174 1215 l 868 1215 l 868 1042 l 1042 1042 l 1042 868 l 868 868 l 868 694 l 1042 694 l 1042 0 l 174 0 z "},"ä":{"ha":1259,"x_min":0,"x_max":1042,"o":"m 694 174 l 694 347 l 347 347 l 347 174 l 694 174 m 174 0 l 174 174 l 0 174 l 0 347 l 174 347 l 174 521 l 694 521 l 694 694 l 174 694 l 174 868 l 868 868 l 868 694 l 1042 694 l 1042 0 l 174 0 m 174 1042 l 174 1215 l 868 1215 l 868 1042 l 174 1042 z "},"å":{"ha":1259,"x_min":0,"x_max":1042,"o":"m 694 174 l 694 347 l 347 347 l 347 174 l 694 174 m 174 0 l 174 174 l 0 174 l 0 347 l 174 347 l 174 521 l 694 521 l 694 694 l 174 694 l 174 868 l 868 868 l 868 694 l 1042 694 l 1042 0 l 174 0 m 347 1042 l 347 1215 l 694 1215 l 694 1042 l 347 1042 z "},"æ":{"ha":1259,"x_min":0,"x_max":1042,"o":"m 174 0 l 174 174 l 0 174 l 0 347 l 174 347 l 174 521 l 347 521 l 347 694 l 174 694 l 174 868 l 868 868 l 868 694 l 1042 694 l 1042 347 l 694 347 l 694 174 l 1042 174 l 1042 0 l 174 0 z "},"ç":{"ha":1259,"x_min":0,"x_max":1042,"o":"m 347 -174 l 347 0 l 694 0 l 694 174 l 174 174 l 174 347 l 0 347 l 0 868 l 174 868 l 174 1042 l 868 1042 l 868 868 l 1042 868 l 1042 694 l 694 694 l 694 868 l 347 868 l 347 347 l 694 347 l 694 521 l 1042 521 l 1042 347 l 868 347 l 868 174 l 1042 174 l 1042 0 l 868 0 l 868 -174 l 347 -174 z "},"è":{"ha":1259,"x_min":0,"x_max":1042,"o":"m 694 521 l 694 694 l 347 694 l 347 521 l 694 521 m 174 0 l 174 174 l 0 174 l 0 694 l 174 694 l 174 868 l 868 868 l 868 694 l 1042 694 l 1042 347 l 347 347 l 347 174 l 1042 174 l 1042 0 l 174 0 m 0 1042 l 0 1215 l 521 1215 l 521 1042 l 0 1042 z "},"é":{"ha":1259,"x_min":0,"x_max":1042,"o":"m 694 521 l 694 694 l 347 694 l 347 521 l 694 521 m 174 0 l 174 174 l 0 174 l 0 694 l 174 694 l 174 868 l 868 868 l 868 694 l 1042 694 l 1042 347 l 347 347 l 347 174 l 1042 174 l 1042 0 l 174 0 m 521 1042 l 521 1215 l 1042 1215 l 1042 1042 l 521 1042 z "},"ê":{"ha":1259,"x_min":0,"x_max":1042,"o":"m 694 521 l 694 694 l 347 694 l 347 521 l 694 521 m 694 868 l 694 1042 l 347 1042 l 347 868 l 694 868 m 174 0 l 174 174 l 0 174 l 0 694 l 174 694 l 174 868 l 0 868 l 0 1042 l 174 1042 l 174 1215 l 868 1215 l 868 1042 l 1042 1042 l 1042 868 l 868 868 l 868 694 l 1042 694 l 1042 347 l 347 347 l 347 174 l 1042 174 l 1042 0 l 174 0 z "},"ë":{"ha":1259,"x_min":0,"x_max":1042,"o":"m 694 521 l 694 694 l 347 694 l 347 521 l 694 521 m 174 0 l 174 174 l 0 174 l 0 694 l 174 694 l 174 868 l 868 868 l 868 694 l 1042 694 l 1042 347 l 347 347 l 347 174 l 1042 174 l 1042 0 l 174 0 m 174 1042 l 174 1215 l 868 1215 l 868 1042 l 174 1042 z "},"ì":{"ha":738,"x_min":0,"x_max":521,"o":"m 174 0 l 174 868 l 521 868 l 521 0 l 174 0 m 0 1042 l 0 1215 l 521 1215 l 521 1042 l 0 1042 z "},"í":{"ha":738,"x_min":0,"x_max":521,"o":"m 0 0 l 0 868 l 347 868 l 347 0 l 0 0 m 0 1042 l 0 1215 l 521 1215 l 521 1042 l 0 1042 z "},"î":{"ha":1259,"x_min":0,"x_max":1042,"o":"m 347 0 l 347 868 l 694 868 l 694 0 l 347 0 m 0 868 l 0 1042 l 174 1042 l 174 1215 l 868 1215 l 868 1042 l 1042 1042 l 1042 868 l 694 868 l 694 1042 l 347 1042 l 347 868 l 0 868 z "},"ï":{"ha":911,"x_min":0,"x_max":694,"o":"m 174 0 l 174 868 l 521 868 l 521 0 l 174 0 m 0 1042 l 0 1215 l 694 1215 l 694 1042 l 0 1042 z "},"ñ":{"ha":1259,"x_min":0,"x_max":1042,"o":"m 0 0 l 0 868 l 868 868 l 868 694 l 1042 694 l 1042 0 l 694 0 l 694 694 l 347 694 l 347 0 l 0 0 m 0 1042 l 0 1215 l 1042 1215 l 1042 1042 l 0 1042 z "},"ò":{"ha":1259,"x_min":0,"x_max":1042,"o":"m 694 174 l 694 694 l 347 694 l 347 174 l 694 174 m 174 0 l 174 174 l 0 174 l 0 694 l 174 694 l 174 868 l 868 868 l 868 694 l 1042 694 l 1042 174 l 868 174 l 868 0 l 174 0 m 0 1042 l 0 1215 l 521 1215 l 521 1042 l 0 1042 z "},"ó":{"ha":1259,"x_min":0,"x_max":1042,"o":"m 694 174 l 694 694 l 347 694 l 347 174 l 694 174 m 174 0 l 174 174 l 0 174 l 0 694 l 174 694 l 174 868 l 868 868 l 868 694 l 1042 694 l 1042 174 l 868 174 l 868 0 l 174 0 m 521 1042 l 521 1215 l 1042 1215 l 1042 1042 l 521 1042 z "},"ô":{"ha":1259,"x_min":0,"x_max":1042,"o":"m 694 174 l 694 694 l 347 694 l 347 174 l 694 174 m 694 868 l 694 1042 l 347 1042 l 347 868 l 694 868 m 174 0 l 174 174 l 0 174 l 0 694 l 174 694 l 174 868 l 0 868 l 0 1042 l 174 1042 l 174 1215 l 868 1215 l 868 1042 l 1042 1042 l 1042 868 l 868 868 l 868 694 l 1042 694 l 1042 174 l 868 174 l 868 0 l 174 0 z "},"ö":{"ha":1259,"x_min":0,"x_max":1042,"o":"m 694 174 l 694 694 l 347 694 l 347 174 l 694 174 m 174 0 l 174 174 l 0 174 l 0 694 l 174 694 l 174 868 l 868 868 l 868 694 l 1042 694 l 1042 174 l 868 174 l 868 0 l 174 0 m 174 1042 l 174 1215 l 868 1215 l 868 1042 l 174 1042 z "},"÷":{"ha":1432,"x_min":0,"x_max":1215,"o":"m 347 0 l 347 347 l 868 347 l 868 0 l 347 0 m 0 521 l 0 694 l 1215 694 l 1215 521 l 0 521 m 347 868 l 347 1215 l 868 1215 l 868 868 l 347 868 z "},"ø":{"ha":1259,"x_min":0,"x_max":1042,"o":"m 694 174 l 694 347 l 521 347 l 521 174 l 694 174 m 521 521 l 521 694 l 347 694 l 347 521 l 521 521 m 174 0 l 174 174 l 0 174 l 0 694 l 174 694 l 174 868 l 868 868 l 868 694 l 1042 694 l 1042 174 l 868 174 l 868 0 l 174 0 z "},"ù":{"ha":1259,"x_min":0,"x_max":1042,"o":"m 174 0 l 174 174 l 0 174 l 0 868 l 347 868 l 347 174 l 694 174 l 694 868 l 1042 868 l 1042 0 l 174 0 m 0 1042 l 0 1215 l 521 1215 l 521 1042 l 0 1042 z "},"ú":{"ha":1259,"x_min":0,"x_max":1042,"o":"m 174 0 l 174 174 l 0 174 l 0 868 l 347 868 l 347 174 l 694 174 l 694 868 l 1042 868 l 1042 0 l 174 0 m 521 1042 l 521 1215 l 1042 1215 l 1042 1042 l 521 1042 z "},"û":{"ha":1259,"x_min":0,"x_max":1042,"o":"m 174 0 l 174 174 l 0 174 l 0 694 l 347 694 l 347 174 l 694 174 l 694 694 l 1042 694 l 1042 0 l 174 0 m 0 868 l 0 1042 l 174 1042 l 174 1215 l 868 1215 l 868 1042 l 1042 1042 l 1042 868 l 694 868 l 694 1042 l 347 1042 l 347 868 l 0 868 z "},"ü":{"ha":1259,"x_min":0,"x_max":1042,"o":"m 174 0 l 174 174 l 0 174 l 0 868 l 347 868 l 347 174 l 694 174 l 694 868 l 1042 868 l 1042 174 l 868 174 l 868 0 l 174 0 m 0 1042 l 0 1215 l 347 1215 l 347 1042 l 0 1042 m 694 1042 l 694 1215 l 1042 1215 l 1042 1042 l 694 1042 z "},"ÿ":{"ha":1259,"x_min":0,"x_max":1042,"o":"m 0 -174 l 0 0 l 694 0 l 694 174 l 174 174 l 174 347 l 0 347 l 0 868 l 347 868 l 347 347 l 694 347 l 694 868 l 1042 868 l 1042 0 l 868 0 l 868 -174 l 0 -174 m 174 1042 l 174 1215 l 868 1215 l 868 1042 l 174 1042 z "},"Ÿ":{"ha":1259,"x_min":0,"x_max":1042,"o":"m 0 -174 l 0 0 l 694 0 l 694 174 l 174 174 l 174 347 l 0 347 l 0 868 l 347 868 l 347 347 l 694 347 l 694 868 l 1042 868 l 1042 0 l 868 0 l 868 -174 l 0 -174 m 174 1042 l 174 1215 l 868 1215 l 868 1042 l 174 1042 z "},"Α":{"ha":1259,"x_min":0,"x_max":1042,"o":"m 694 868 l 694 1042 l 347 1042 l 347 868 l 694 868 m 0 0 l 0 1042 l 174 1042 l 174 1215 l 868 1215 l 868 1042 l 1042 1042 l 1042 0 l 694 0 l 694 694 l 347 694 l 347 0 l 0 0 z "},"Β":{"ha":1259,"x_min":0,"x_max":1042,"o":"m 694 174 l 694 694 l 347 694 l 347 174 l 694 174 m 694 868 l 694 1042 l 347 1042 l 347 868 l 694 868 m 0 0 l 0 1215 l 868 1215 l 868 1042 l 1042 1042 l 1042 868 l 868 868 l 868 694 l 1042 694 l 1042 174 l 868 174 l 868 0 l 0 0 z "},"Γ":{"ha":1432,"x_min":0,"x_max":1215,"o":"m 0 0 l 0 1042 l 1215 1042 l 1215 694 l 694 694 l 694 868 l 521 868 l 521 0 l 0 0 z "},"Δ":{"ha":1259,"x_min":0,"x_max":1042,"o":"m 694 174 l 694 521 l 347 521 l 347 174 l 694 174 m 0 0 l 0 521 l 174 521 l 174 694 l 347 694 l 347 868 l 694 868 l 694 694 l 868 694 l 868 521 l 1042 521 l 1042 0 l 0 0 z "},"Ε":{"ha":1259,"x_min":0,"x_max":1042,"o":"m 0 0 l 0 1215 l 1042 1215 l 1042 1042 l 347 1042 l 347 868 l 694 868 l 694 694 l 347 694 l 347 174 l 1042 174 l 1042 0 l 0 0 z "},"Ζ":{"ha":1259,"x_min":0,"x_max":1042,"o":"m 0 0 l 0 347 l 174 347 l 174 521 l 347 521 l 347 694 l 521 694 l 521 868 l 694 868 l 694 1042 l 0 1042 l 0 1215 l 1042 1215 l 1042 868 l 868 868 l 868 694 l 694 694 l 694 521 l 521 521 l 521 347 l 347 347 l 347 174 l 1042 174 l 1042 0 l 0 0 z "},"Η":{"ha":1259,"x_min":0,"x_max":1042,"o":"m 0 0 l 0 1215 l 347 1215 l 347 868 l 694 868 l 694 1215 l 1042 1215 l 1042 0 l 694 0 l 694 694 l 347 694 l 347 0 l 0 0 z "},"Κ":{"ha":1259,"x_min":0,"x_max":1042,"o":"m 0 0 l 0 1215 l 347 1215 l 347 868 l 521 868 l 521 1042 l 694 1042 l 694 1215 l 1042 1215 l 1042 1042 l 868 1042 l 868 868 l 694 868 l 694 694 l 868 694 l 868 521 l 1042 521 l 1042 0 l 694 0 l 694 521 l 521 521 l 521 694 l 347 694 l 347 0 l 0 0 z "},"Μ":{"ha":1259,"x_min":0,"x_max":1042,"o":"m 0 0 l 0 1215 l 347 1215 l 347 1042 l 694 1042 l 694 1215 l 1042 1215 l 1042 0 l 694 0 l 694 694 l 347 694 l 347 0 l 0 0 z "},"Ν":{"ha":1259,"x_min":0,"x_max":1042,"o":"m 0 0 l 0 1215 l 347 1215 l 347 1042 l 521 1042 l 521 868 l 694 868 l 694 1215 l 1042 1215 l 1042 0 l 694 0 l 694 521 l 521 521 l 521 694 l 347 694 l 347 0 l 0 0 z "},"Ξ":{"ha":1259,"x_min":0,"x_max":1042,"o":"m 0 174 l 0 347 l 1042 347 l 1042 174 l 0 174 m 0 521 l 0 694 l 1042 694 l 1042 521 l 0 521 m 0 868 l 0 1042 l 1042 1042 l 1042 868 l 0 868 z "},"Ο":{"ha":1259,"x_min":0,"x_max":1042,"o":"m 694 174 l 694 1042 l 347 1042 l 347 174 l 694 174 m 174 0 l 174 174 l 0 174 l 0 1042 l 174 1042 l 174 1215 l 868 1215 l 868 1042 l 1042 1042 l 1042 174 l 868 174 l 868 0 l 174 0 z "},"Π":{"ha":1606,"x_min":0,"x_max":1389,"o":"m 174 0 l 174 868 l 0 868 l 0 1042 l 1389 1042 l 1389 868 l 1215 868 l 1215 0 l 174 0 z "},"Ρ":{"ha":1259,"x_min":0,"x_max":1042,"o":"m 694 868 l 694 1042 l 347 1042 l 347 868 l 694 868 m 0 0 l 0 1215 l 868 1215 l 868 1042 l 1042 1042 l 1042 868 l 868 868 l 868 694 l 347 694 l 347 0 l 0 0 z "},"Σ":{"ha":1432,"x_min":0,"x_max":1215,"o":"m 0 0 l 0 347 l 174 347 l 174 521 l 347 521 l 347 694 l 174 694 l 174 868 l 0 868 l 0 1215 l 1215 1215 l 1215 868 l 694 868 l 694 1042 l 521 1042 l 521 868 l 694 868 l 694 694 l 868 694 l 868 521 l 694 521 l 694 347 l 521 347 l 521 174 l 694 174 l 694 347 l 1215 347 l 1215 0 l 0 0 z "},"Τ":{"ha":1259,"x_min":0,"x_max":1042,"o":"m 347 0 l 347 1042 l 0 1042 l 0 1215 l 1042 1215 l 1042 1042 l 694 1042 l 694 0 l 347 0 z "},"Χ":{"ha":1259,"x_min":0,"x_max":1042,"o":"m 0 0 l 0 521 l 174 521 l 174 694 l 347 694 l 347 868 l 174 868 l 174 1042 l 0 1042 l 0 1215 l 347 1215 l 347 1042 l 694 1042 l 694 1215 l 1042 1215 l 1042 1042 l 868 1042 l 868 868 l 694 868 l 694 694 l 868 694 l 868 521 l 1042 521 l 1042 0 l 694 0 l 694 521 l 347 521 l 347 0 l 0 0 z "},"Ω":{"ha":1606,"x_min":0,"x_max":1389,"o":"m 868 521 l 868 868 l 521 868 l 521 521 l 868 521 m 0 0 l 0 174 l 174 174 l 174 521 l 0 521 l 0 868 l 174 868 l 174 1042 l 347 1042 l 347 1215 l 1042 1215 l 1042 1042 l 1215 1042 l 1215 868 l 1389 868 l 1389 521 l 1215 521 l 1215 174 l 1389 174 l 1389 0 l 0 0 z "},"α":{"ha":1606,"x_min":0,"x_max":1389,"o":"m 694 347 l 694 521 l 521 521 l 521 347 l 694 347 m 174 0 l 174 174 l 0 174 l 0 694 l 174 694 l 174 868 l 1389 868 l 1389 694 l 1215 694 l 1215 521 l 1042 521 l 1042 347 l 1215 347 l 1215 174 l 1389 174 l 1389 0 l 174 0 z "},"β":{"ha":1432,"x_min":0,"x_max":1215,"o":"m 694 521 l 694 694 l 521 694 l 521 521 l 694 521 m 694 868 l 694 1042 l 521 1042 l 521 868 l 694 868 m 0 -174 l 0 1042 l 174 1042 l 174 1215 l 1042 1215 l 1042 1042 l 1215 1042 l 1215 868 l 1042 868 l 1042 694 l 1215 694 l 1215 521 l 1042 521 l 1042 347 l 521 347 l 521 -174 l 0 -174 z "},"δ":{"ha":1432,"x_min":0,"x_max":1215,"o":"m 694 174 l 694 521 l 521 521 l 521 174 l 694 174 m 174 0 l 174 174 l 0 174 l 0 521 l 174 521 l 174 694 l 521 694 l 521 868 l 347 868 l 347 1042 l 521 1042 l 521 1215 l 1215 1215 l 1215 1042 l 868 1042 l 868 868 l 1042 868 l 1042 694 l 1215 694 l 1215 174 l 1042 174 l 1042 0 l 174 0 z "},"ε":{"ha":1259,"x_min":0,"x_max":1042,"o":"m 347 0 l 347 174 l 174 174 l 174 347 l 0 347 l 0 868 l 174 868 l 174 1042 l 347 1042 l 347 1215 l 1042 1215 l 1042 1042 l 694 1042 l 694 868 l 521 868 l 521 694 l 1042 694 l 1042 521 l 521 521 l 521 347 l 694 347 l 694 174 l 1042 174 l 1042 0 l 347 0 z "},"θ":{"ha":1606,"x_min":0,"x_max":1389,"o":"m 868 347 l 868 521 l 521 521 l 521 347 l 868 347 m 868 694 l 868 868 l 521 868 l 521 694 l 868 694 m 347 0 l 347 174 l 174 174 l 174 347 l 0 347 l 0 868 l 174 868 l 174 1042 l 347 1042 l 347 1215 l 1042 1215 l 1042 1042 l 1215 1042 l 1215 868 l 1389 868 l 1389 347 l 1215 347 l 1215 174 l 1042 174 l 1042 0 l 347 0 z "},"μ":{"ha":1606,"x_min":0,"x_max":1389,"o":"m 0 -174 l 0 0 l 174 0 l 174 1215 l 694 1215 l 694 347 l 868 347 l 868 1215 l 1389 1215 l 1389 347 l 1215 347 l 1215 174 l 694 174 l 694 0 l 521 0 l 521 -174 l 0 -174 z "},"σ":{"ha":1606,"x_min":0,"x_max":1389,"o":"m 174 0 l 174 174 l 0 174 l 0 694 l 174 694 l 174 868 l 1389 868 l 1389 694 l 1042 694 l 1042 174 l 868 174 l 868 0 l 174 0 z "},"ẞ":{"ha":1259,"x_min":0,"x_max":1042,"o":"m 694 174 l 694 1042 l 347 1042 l 347 174 l 694 174 m 0 0 l 0 1215 l 1042 1215 l 1042 0 l 0 0 z "},"—":{"ha":1259,"x_min":0,"x_max":1042,"o":"m 0 521 l 0 694 l 1042 694 l 1042 521 l 0 521 z "},"‘":{"ha":738,"x_min":0,"x_max":521,"o":"m 0 694 l 0 868 l 174 868 l 174 1215 l 521 1215 l 521 868 l 347 868 l 347 694 l 0 694 z "},"’":{"ha":738,"x_min":0,"x_max":521,"o":"m 0 694 l 0 868 l 174 868 l 174 1215 l 521 1215 l 521 868 l 347 868 l 347 694 l 0 694 z "},"‚":{"ha":564,"x_min":0,"x_max":347,"o":"m 0 -174 l 0 347 l 347 347 l 347 -174 l 0 -174 z "},"‛":{"ha":738,"x_min":0,"x_max":521,"o":"m 174 694 l 174 868 l 0 868 l 0 1215 l 347 1215 l 347 868 l 521 868 l 521 694 l 174 694 z "},"“":{"ha":1085,"x_min":0,"x_max":868,"o":"m 0 694 l 0 868 l 174 868 l 174 1215 l 868 1215 l 868 868 l 694 868 l 694 694 l 0 694 z "},"”":{"ha":1085,"x_min":0,"x_max":868,"o":"m 0 694 l 0 868 l 174 868 l 174 1215 l 868 1215 l 868 868 l 694 868 l 694 694 l 0 694 z "},"•":{"ha":1085,"x_min":0,"x_max":868,"o":"m 174 174 l 174 347 l 0 347 l 0 694 l 174 694 l 174 868 l 694 868 l 694 694 l 868 694 l 868 347 l 694 347 l 694 174 l 174 174 z "},"‹":{"ha":911,"x_min":0,"x_max":694,"o":"m 347 174 l 347 347 l 174 347 l 174 521 l 0 521 l 0 694 l 174 694 l 174 868 l 347 868 l 347 1042 l 694 1042 l 694 868 l 521 868 l 521 694 l 347 694 l 347 521 l 521 521 l 521 347 l 694 347 l 694 174 l 347 174 z "},"›":{"ha":911,"x_min":0,"x_max":694,"o":"m 0 174 l 0 347 l 174 347 l 174 521 l 347 521 l 347 694 l 174 694 l 174 868 l 0 868 l 0 1042 l 347 1042 l 347 868 l 521 868 l 521 694 l 694 694 l 694 521 l 521 521 l 521 347 l 347 347 l 347 174 l 0 174 z "}}}
